<?xml version="1.0" encoding="utf-8"?>
<!-- Generator: Adobe Illustrator 22.0.1, SVG Export Plug-In . SVG Version: 6.00 Build 0)  -->
<svg version="1.1" id="Layer_1" xmlns="http://www.w3.org/2000/svg" xmlns:xlink="http://www.w3.org/1999/xlink" x="0px" y="0px"
	 viewBox="0 0 460.6 462.9" style="enable-background:new 0 0 460.6 462.9;" xml:space="preserve">
<style type="text/css">
	.st0{fill:#FFFFFF;}
	.st1{fill:none;stroke:#000000;stroke-width:5;stroke-linecap:round;stroke-miterlimit:10;stroke-dasharray:12;}
	.st2{fill:none;stroke:#000000;stroke-width:5;stroke-linecap:round;stroke-linejoin:round;stroke-miterlimit:10;}
</style>
<circle class="st0" cx="231.8" cy="232.9" r="215.9"/>
<line class="st1" x1="167.8" y1="119.4" x2="167.8" y2="342.2"/>
<path class="st2" d="M147.5,123.7c1.2-10,8.4-32.6,18.7-33.7c10.8-1.1,20,19.8,21.8,30.8"/>
<path class="st2" d="M188,342.2c-1.2,10-8.4,32.6-18.7,33.7c-10.8,1.1-20-19.8-21.8-30.8"/>
<line class="st1" x1="294.1" y1="120" x2="294.1" y2="342.7"/>
<path class="st2" d="M273.9,124.2c1.2-10,8.4-32.6,18.7-33.7c10.8-1.1,20,19.8,21.8,30.8"/>
<path class="st2" d="M314.4,342.7c-1.2,10-8.4,32.6-18.7,33.7c-10.8,1.1-20-19.8-21.8-30.8"/>
</svg>
