<?xml version="1.0" encoding="utf-8"?>
<!-- Generator: Adobe Illustrator 22.0.1, SVG Export Plug-In . SVG Version: 6.00 Build 0)  -->
<svg version="1.1" id="Layer_1" xmlns="http://www.w3.org/2000/svg" xmlns:xlink="http://www.w3.org/1999/xlink" x="0px" y="0px"
	 viewBox="0 0 460.6 462.9" style="enable-background:new 0 0 460.6 462.9;" xml:space="preserve">
<style type="text/css">
	.st0{fill:#FFFFFF;}
	.st1{fill:none;stroke:#000000;stroke-width:5;stroke-linecap:round;stroke-miterlimit:10;stroke-dasharray:12;}
	.st2{fill:none;stroke:#000000;stroke-width:5;stroke-linecap:round;stroke-linejoin:round;stroke-miterlimit:10;}
</style>
<circle class="st0" cx="231.8" cy="232.9" r="215.9"/>
<path class="st1" d="M165.5,116.4c0,0,33.1,40.8,33.1,116.9c0,69.8-33.1,118-33.1,118"/>
<path class="st2" d="M149.7,132.1c-3.9-9.8-8.4-34.5,0.7-40.6c9.5-6.4,28.4,8.5,35.6,17.8"/>
<path class="st2" d="M187.2,353.2c-5.8,8.9-23.2,26.9-33.4,23.1c-10.7-4-9.6-28-6.2-39.3"/>
<path class="st1" d="M298.3,116.8c0,0-33.1,40.8-33.1,116.9c0,69.8,33.1,118,33.1,118"/>
<path class="st2" d="M314.1,132.6c3.9-9.8,8.4-34.5-0.7-40.6c-9.5-6.4-28.4,8.5-35.6,17.8"/>
<path class="st2" d="M276.6,353.6c5.8,8.9,23.2,26.9,33.4,23.1c10.7-4,9.6-28,6.2-39.3"/>
</svg>
