<?xml version="1.0" encoding="utf-8"?>
<!-- Generator: Adobe Illustrator 22.0.1, SVG Export Plug-In . SVG Version: 6.00 Build 0)  -->
<svg version="1.1" id="Layer_1" xmlns="http://www.w3.org/2000/svg" xmlns:xlink="http://www.w3.org/1999/xlink" x="0px" y="0px"
	 viewBox="0 0 340 451.7" style="enable-background:new 0 0 340 451.7;" xml:space="preserve">
<style type="text/css">
	.st0{fill:#CCCCCC;}
	.st1{fill:none;stroke:#FFFFFF;stroke-width:9;stroke-miterlimit:10;}
	.st2{fill:none;stroke:#FFFFFF;stroke-width:9;stroke-miterlimit:10;stroke-dasharray:19.6381,19.6381;}
	.st3{fill:none;stroke:#FFFFFF;stroke-width:9;stroke-miterlimit:10;stroke-dasharray:20.9701,20.9701;}
	.st4{fill:#F8D146;stroke:#FFFFFF;stroke-miterlimit:10;}
</style>
<path class="st0" d="M332,439.4H8c-2.2,0-4-1.8-4-4v-424c0-2.2,1.8-4,4-4h324c2.2,0,4,1.8,4,4v424
	C335.9,437.7,334.2,439.4,332,439.4z"/>
<g>
	<g>
		<polyline class="st1" points="307.7,401.7 307.7,411.7 297.7,411.7 		"/>
		<line class="st2" x1="278" y1="411.7" x2="52.2" y2="411.7"/>
		<polyline class="st1" points="42.4,411.7 32.4,411.7 32.4,401.7 		"/>
		<line class="st3" x1="32.4" y1="380.8" x2="32.4" y2="55.7"/>
		<polyline class="st1" points="32.4,45.2 32.4,35.2 42.4,35.2 		"/>
		<line class="st2" x1="62" y1="35.2" x2="287.8" y2="35.2"/>
		<polyline class="st1" points="297.7,35.2 307.7,35.2 307.7,45.2 		"/>
		<line class="st3" x1="307.7" y1="66.2" x2="307.7" y2="391.2"/>
	</g>
</g>
<g>
	<path class="st4" d="M214.3,299.8c2-36-3.6-81.4,4.4-105.5c1.7-5.1,2.9-10.6,3.2-15.9c1.2-18.5-8.3-26.8-26.9-27.7
		c-8.8-0.5-17,1.8-24.7,5.8c-12,6.2-22.3,14.7-31.1,24.9c-10.6,12.3-15.2,22.3-12.8,37.8c1.7,11.1,5.4,21.7,9.9,31.9
		c5,11.3,6.2,22.9,5.2,35.1c-0.7,8.9-1.2,17.9-0.7,26.8c0.6,14,6.6,25.6,18.2,33.8c12.5,8.9,28.3,7.6,39.1-3.4
		c10.8-11,15.3-24.5,15.7-39.6c0-1.3,0-2.6,0-3.9C213.9,299.8,214.1,299.8,214.3,299.8z"/>
	<path class="st4" d="M188.9,111.8c1.4,5.4,2.2,11,4.2,16.2c2.7,6.9,8.5,10.4,15,10c6.8-0.4,12.3-4.7,14.3-11.9
		c2.7-9.2,1.1-18-4.6-25.7c-4.6-6.1-11.4-7.8-18.8-5.2c-6,2.1-9.1,6.9-9.3,14.5c0,0.6,0,1.3,0,1.9
		C189.4,111.7,189.2,111.8,188.9,111.8z"/>
	<path class="st4" d="M167.2,120.2c1,4,1.7,8.1,3.2,11.9c1.7,4.3,5.6,6.5,9.5,6.1c4-0.4,7.2-3.3,8.5-7.7c1.5-5.3,0.8-10.4-1.7-15.3
		c-2.7-5.3-7.2-7.4-12.2-6.1C169.9,110.4,167.7,113.9,167.2,120.2z"/>
	<path class="st4" d="M149.2,134.8c0.9,3.3,1.6,6.8,2.8,10c1.3,3.1,3.9,4.8,7.4,4.8c3.5,0,6.1-1.7,7.5-4.8
		c2.9-6.1,2.2-12.1-1.5-17.6c-2.2-3.4-5.8-4.6-9.7-3.6c-3.5,0.9-5.5,3.5-6,7.7c-0.1,1.1-0.1,2.2-0.2,3.3
		C149.5,134.7,149.4,134.8,149.2,134.8z"/>
	<path class="st4" d="M132.5,150.1c0.8,3,1.3,6.1,2.4,9c1.2,3,3.6,4.9,7,4.9c3.5,0,6-1.8,7.3-5c2.2-5.3,1.7-10.5-1.2-15.3
		c-2.2-3.6-5.4-4.9-9.2-3.9c-3.5,0.9-5.3,3.2-5.8,7.5c-0.1,0.9-0.1,1.8-0.1,2.8C132.8,150,132.6,150,132.5,150.1z"/>
	<path class="st4" d="M116.3,165.4c0.9,3.2,1.4,6.7,2.9,9.6c2.6,5.1,9.2,5.1,12.5,0.4c3.3-4.9,2.3-14-2.1-17.9
		c-4.3-3.9-11.1-1.7-12.4,3.9c-0.3,1.2-0.3,2.6-0.5,3.8C116.6,165.3,116.5,165.3,116.3,165.4z"/>
</g>
</svg>
