<?xml version="1.0" encoding="utf-8"?>
<!-- Generator: Adobe Illustrator 22.0.1, SVG Export Plug-In . SVG Version: 6.00 Build 0)  -->
<svg version="1.1" id="Layer_1" xmlns="http://www.w3.org/2000/svg" xmlns:xlink="http://www.w3.org/1999/xlink" x="0px" y="0px"
	 viewBox="0 0 340 451.7" style="enable-background:new 0 0 340 451.7;" xml:space="preserve">
<style type="text/css">
	.st0{fill:#CCCCCC;}
	.st1{fill:none;stroke:#FFFFFF;stroke-width:9;stroke-miterlimit:10;}
	.st2{fill:none;stroke:#FFFFFF;stroke-width:9;stroke-miterlimit:10;stroke-dasharray:19.6381,19.6381;}
	.st3{fill:none;stroke:#FFFFFF;stroke-width:9;stroke-miterlimit:10;stroke-dasharray:20.9701,20.9701;}
	.st4{fill:#F8D146;stroke:#FFFFFF;stroke-miterlimit:10;}
</style>
<path class="st0" d="M332,439.4H8c-2.2,0-4-1.8-4-4v-424c0-2.2,1.8-4,4-4h324c2.2,0,4,1.8,4,4v424
	C335.9,437.7,334.2,439.4,332,439.4z"/>
<g>
	<g>
		<polyline class="st1" points="307.7,401.7 307.7,411.7 297.7,411.7 		"/>
		<line class="st2" x1="278" y1="411.7" x2="52.2" y2="411.7"/>
		<polyline class="st1" points="42.4,411.7 32.4,411.7 32.4,401.7 		"/>
		<line class="st3" x1="32.4" y1="380.8" x2="32.4" y2="55.7"/>
		<polyline class="st1" points="32.4,45.2 32.4,35.2 42.4,35.2 		"/>
		<line class="st2" x1="62" y1="35.2" x2="287.8" y2="35.2"/>
		<polyline class="st1" points="297.7,35.2 307.7,35.2 307.7,45.2 		"/>
		<line class="st3" x1="307.7" y1="66.2" x2="307.7" y2="391.2"/>
	</g>
</g>
<g>
	<path class="st4" d="M119.8,202.5c-0.4,2.9-1.9,19.5,5.6,28.2c4.9,5.7,14,5.1,18.3-1.2c4.3-6.1,27.5-45.9,55.2-41
		c16.3,2.9,19-4.7,20.2-11.7c1.9-12-4.2-20.6-16.5-25.3c-10-3.8-20.1-3.6-30.1,0c-15.5,5.5-28.7,14.7-39.9,26.7
		C125.6,185.7,120.8,191.6,119.8,202.5z"/>
	<path class="st4" d="M135.5,316.5c2.2,10,12.8,23.9,20.9,30c15.9,11.8,36.7,6.8,46.8-11.3c4.9-8.8,6-18.2,3.9-27.9
		c-1.6-7.8-6.4-13.6-12.8-18.1C181.8,280.3,123.6,276.2,135.5,316.5z"/>
	<path class="st4" d="M192,110.7c-0.2,5.9,0,11.8,2.3,17.3c2.6,6.3,7,10.4,14.1,10.6c7.2,0.2,12.4-3.4,15.2-9.9
		c4-9.4,3.1-18.7-2.3-27.3c-4-6.3-10.7-8.6-18.1-6.8c-6.6,1.6-10.1,6-11,13.8C192.1,109.2,192.1,110,192,110.7z"/>
	<path class="st4" d="M168.5,117.6c1,4.4,1.5,8.9,3,13.2c1.2,3.7,4.4,5.8,8.4,5.8c4.2,0,7.3-2.2,8.9-6c2.8-6.5,2.2-13-1.4-19
		c-2.5-4.2-6.7-5.7-11.3-4.4c-4.4,1.2-6.5,4.4-6.9,10.3C169,117.5,168.8,117.6,168.5,117.6z"/>
	<path class="st4" d="M149.4,130.6c0.6,3.5,0.9,7,1.9,10.3c1,3.4,3.6,5.4,7.2,5.7c3.6,0.3,6.4-1.3,8.1-4.4
		c3.2-5.8,2.9-11.7-0.1-17.4c-2-3.9-5.5-5.4-9.6-4.7c-3.7,0.7-6,3.2-6.7,7.6c-0.2,0.9-0.2,1.9-0.2,2.8
		C149.8,130.5,149.6,130.5,149.4,130.6z"/>
	<path class="st4" d="M131.3,145c0.5,3.1,0.8,6.3,1.7,9.3c1,3.3,3.4,5.3,7,5.5c3.6,0.2,6.1-1.6,7.6-4.7c2.7-5.5,2.4-11-0.7-16.3
		c-1.9-3.2-5.1-4.4-8.7-3.7c-3.6,0.7-5.4,3.1-6,6.5c-0.2,1.1-0.3,2.2-0.5,3.3C131.6,144.9,131.4,144.9,131.3,145z"/>
	<path class="st4" d="M114,159.2c0.4,2.9,0.6,5.9,1.4,8.8c0.9,3.2,3.1,5.4,6.6,5.6c3.5,0.2,6-1.5,7.5-4.4c2.7-5.2,2.3-10.5-0.6-15.5
		c-1.7-2.9-4.4-4.1-7.9-3.5c-3.3,0.5-5.3,2.5-6.1,5.7c-0.3,1.1-0.4,2.2-0.6,3.3C114.2,159.1,114.1,159.1,114,159.2z"/>
</g>
</svg>
