<?xml version="1.0" encoding="utf-8"?>
<!-- Generator: Adobe Illustrator 22.0.1, SVG Export Plug-In . SVG Version: 6.00 Build 0)  -->
<svg version="1.1" id="Layer_1" xmlns="http://www.w3.org/2000/svg" xmlns:xlink="http://www.w3.org/1999/xlink" x="0px" y="0px"
	 viewBox="0 0 340 451.7" style="enable-background:new 0 0 340 451.7;" xml:space="preserve">
<style type="text/css">
	.st0{fill:#CCCCCC;}
	.st1{fill:none;stroke:#FFFFFF;stroke-width:9;stroke-miterlimit:10;}
	.st2{fill:none;stroke:#FFFFFF;stroke-width:9;stroke-miterlimit:10;stroke-dasharray:19.6381,19.6381;}
	.st3{fill:none;stroke:#FFFFFF;stroke-width:9;stroke-miterlimit:10;stroke-dasharray:20.9701,20.9701;}
	.st4{fill:#F8D146;stroke:#FFFFFF;stroke-miterlimit:10;}
</style>
<path class="st0" d="M332,439.4H8c-2.2,0-4-1.8-4-4v-424c0-2.2,1.8-4,4-4h324c2.2,0,4,1.8,4,4v424
	C335.9,437.7,334.2,439.4,332,439.4z"/>
<g>
	<g>
		<polyline class="st1" points="307.7,401.7 307.7,411.7 297.7,411.7 		"/>
		<line class="st2" x1="278" y1="411.7" x2="52.2" y2="411.7"/>
		<polyline class="st1" points="42.4,411.7 32.4,411.7 32.4,401.7 		"/>
		<line class="st3" x1="32.4" y1="380.8" x2="32.4" y2="55.7"/>
		<polyline class="st1" points="32.4,45.2 32.4,35.2 42.4,35.2 		"/>
		<line class="st2" x1="62" y1="35.2" x2="287.8" y2="35.2"/>
		<polyline class="st1" points="297.7,35.2 307.7,35.2 307.7,45.2 		"/>
		<line class="st3" x1="307.7" y1="66.2" x2="307.7" y2="391.2"/>
	</g>
</g>
<g>
	<path class="st4" d="M150.7,250.9c-0.8-11.8,5.1-22.5,16.6-30.1c6.7-4.4,20.5-8,27.2-12.3c6-3.8,12.2-7.4,17.5-12
		c10.3-8.9,11.3-21.2,7.5-33.3c-3.6-11.6-24.7-19.2-48-7.4c-14.4,6.6-26.5,16.3-36.3,28.6c-9.3,11.6-11.2,19.6-9,33.9
		c1.6,10.7,4.9,21,9.3,30.8c5.7,12.6,6.8,25.5,5.7,39.1c-0.8,9.1-1,18.4-0.2,27.5c1.4,16.9,13.3,31.4,28.2,35.5
		c10.4,2.8,19.6,0.5,27.6-6.9c6.3-5.8,8-13.1,6.6-21.2c-1.9-11.3-8.1-19.8-18.2-25.3c-7.9-4.3-21.3-9.8-26.4-17.3
		C153.1,272.4,150.7,263.1,150.7,250.9z"/>
	<path class="st4" d="M188.9,111.6c1.2,5.2,1.9,10.5,3.6,15.5c2.6,7.5,8.9,11.5,15.5,11c7.2-0.5,12.9-5.5,14.7-13.3
		c2-8.6,0.5-16.7-4.7-23.9c-5.3-7.3-14.8-9-22.3-4C190.3,100.3,189.6,105.8,188.9,111.6z"/>
	<path class="st4" d="M167.2,120.5c0.9,3.6,1.5,7.4,2.8,10.9c1.8,4.8,5.8,7.2,9.9,6.8c4.2-0.4,7.6-3.7,8.7-8.5
		c1.1-4.8,0.4-9.5-1.7-13.9c-2.6-5.5-7.1-7.8-12.2-6.6C169.8,110.4,167.5,114,167.2,120.5z"/>
	<path class="st4" d="M149.1,134.7c0.9,3.3,1.5,6.8,2.8,10c1.3,3.2,4,5,7.6,4.9c3.7-0.1,6.3-2,7.7-5.4c2.4-5.9,1.7-11.6-1.7-16.9
		c-2.3-3.6-6-4.8-9.9-3.7c-3.5,1-5.6,3.8-5.9,8.1c-0.1,0.9,0,1.8,0,2.8C149.5,134.6,149.3,134.6,149.1,134.7z"/>
	<path class="st4" d="M132.4,150.3c0.9,3.1,1.5,6.4,2.8,9.4c1.3,2.9,3.8,4.4,7.1,4.2c3.3-0.2,5.6-1.9,6.8-4.9
		c2.4-5.8,1.7-11.4-1.9-16.5c-2.1-2.9-5.2-3.7-8.6-2.8c-3.3,0.8-5.1,3.1-5.5,6.8c-0.1,1.2-0.2,2.4-0.2,3.6
		C132.7,150.2,132.5,150.2,132.4,150.3z"/>
	<path class="st4" d="M116.5,165.6c0.7,2.8,1.2,5.8,2.2,8.5c1.1,2.9,3.4,4.8,6.8,4.7c3.5-0.1,5.9-2,7.1-5.2c1.9-5,1.3-9.8-1.4-14.3
		c-1.9-3.1-5-4.3-8.3-3.5c-3.6,0.9-5.5,3-5.9,7c-0.1,0.9-0.1,1.8-0.2,2.8C116.7,165.6,116.6,165.6,116.5,165.6z"/>
</g>
</svg>
