<?xml version="1.0" encoding="utf-8"?>
<!-- Generator: Adobe Illustrator 22.0.1, SVG Export Plug-In . SVG Version: 6.00 Build 0)  -->
<svg version="1.1" id="Layer_1" xmlns="http://www.w3.org/2000/svg" xmlns:xlink="http://www.w3.org/1999/xlink" x="0px" y="0px"
	 viewBox="0 0 340 451.7" style="enable-background:new 0 0 340 451.7;" xml:space="preserve">
<style type="text/css">
	.st0{fill:#CCCCCC;}
	.st1{fill:none;stroke:#FFFFFF;stroke-width:9;stroke-miterlimit:10;}
	.st2{fill:none;stroke:#FFFFFF;stroke-width:9;stroke-miterlimit:10;stroke-dasharray:19.6381,19.6381;}
	.st3{fill:none;stroke:#FFFFFF;stroke-width:9;stroke-miterlimit:10;stroke-dasharray:20.9701,20.9701;}
	.st4{fill:#F8D146;stroke:#FFFFFF;stroke-miterlimit:10;}
</style>
<path class="st0" d="M332,439.4H8c-2.2,0-4-1.8-4-4v-424c0-2.2,1.8-4,4-4h324c2.2,0,4,1.8,4,4v424
	C335.9,437.7,334.2,439.4,332,439.4z"/>
<g>
	<g>
		<polyline class="st1" points="307.7,401.7 307.7,411.7 297.7,411.7 		"/>
		<line class="st2" x1="278" y1="411.7" x2="52.2" y2="411.7"/>
		<polyline class="st1" points="42.4,411.7 32.4,411.7 32.4,401.7 		"/>
		<line class="st3" x1="32.4" y1="380.8" x2="32.4" y2="55.7"/>
		<polyline class="st1" points="32.4,45.2 32.4,35.2 42.4,35.2 		"/>
		<line class="st2" x1="62" y1="35.2" x2="287.8" y2="35.2"/>
		<polyline class="st1" points="297.7,35.2 307.7,35.2 307.7,45.2 		"/>
		<line class="st3" x1="307.7" y1="66.2" x2="307.7" y2="391.2"/>
	</g>
</g>
<g>
	<path class="st4" d="M133.2,243.4c1.1,3.1,2.2,6.3,3.6,9.3c4.5,9.8,5.4,20.1,4.7,30.8c-0.6,9.9-1.2,19.9-0.8,29.8
		c0.5,12.3,5.6,22.7,15.1,30.9c14.6,12.5,34,10.4,45.6-5c8.7-11.4,9.4-24.1,5.6-37.3c-2.2-7.8-5.4-15.2-8.2-22.8
		c-2.7-7.2-5.7-14.4-8.2-21.7c-3.2-9.4-1.8-18.1,4.2-26.1c5.3-7.2,10.8-14.2,15.9-21.6c5.7-8.2,9.7-17.2,10.8-27.2
		c0.5-4.6,0.5-9.5-0.4-14c-2.8-13.6-14.2-16.4-29.4-16.8c-9.3-0.2-17.8,2.6-25.8,7c-11.3,6.3-21.1,14.5-29.4,24.3
		c-7.6,9-11.1,14.1-10.9,25.1C125.5,220.9,129.1,232.2,133.2,243.4z M192.6,127.3c2.6,7.2,8.6,11.1,15.1,10.7
		c7-0.4,12.6-4.9,14.6-12.2c2.5-9.1,0.9-17.6-4.6-25.1c-5.2-7.1-14.7-8.6-22.2-3.8c-2.7,1.7-4.4,4.2-5.1,7.2c-0.6,2.6-0.8,5.2-1.3,9
		C190.1,117.2,190.8,122.5,192.6,127.3z M170,131.4c1.7,4.7,5.6,7.1,9.7,6.7c4.3-0.4,7.6-3.5,8.8-8.3c1.2-4.8,0.5-9.5-1.6-14
		c-2.6-5.5-7-8-12.1-6.8c-5.1,1.2-7.3,4.6-7.7,11.2C168.1,124,168.7,127.9,170,131.4z M151.7,144.2c1.3,3.5,4.1,5.5,7.9,5.3
		c3.8-0.1,6.4-2.2,7.7-5.7c2.1-5.7,1.5-11.3-1.7-16.4c-2.3-3.6-5.9-4.9-9.8-3.9c-3.5,0.9-5.5,3.4-6,7.7c-0.1,1-0.2,2-0.2,3
		c-0.1,0-0.3,0.1-0.4,0.1C150,137.7,150.5,141.1,151.7,144.2z M134.5,158.4c1.2,3.4,3.7,5.5,7.5,5.5c3.4,0,6.2-2.2,7.5-5.9
		c1.7-4.9,1.1-9.6-1.4-14.1c-2.2-3.8-5.5-5.2-9.3-4.3c-3.7,0.9-5.6,3.4-5.9,8c0,0.6,0,1.3,0,1.9c-0.1,0-0.3,0.1-0.4,0.1
		C133.2,152.5,133.5,155.6,134.5,158.4z M118.5,173.7c1.3,3.5,4,5.2,7.1,5.1c3.2-0.1,6-2.2,7.2-5.5c1.7-4.7,1.1-9.2-1.3-13.5
		c-1.9-3.4-5.1-4.8-8.5-4c-3.8,0.9-5.7,3.3-6,7.5c0,0.6,0,1.3,0,1.9c-0.1,0-0.3,0.1-0.4,0.1C117.1,168,117.5,171,118.5,173.7z"/>
</g>
</svg>
