<?xml version="1.0" encoding="utf-8"?>
<!-- Generator: Adobe Illustrator 22.0.1, SVG Export Plug-In . SVG Version: 6.00 Build 0)  -->
<svg version="1.1" id="Layer_1" xmlns="http://www.w3.org/2000/svg" xmlns:xlink="http://www.w3.org/1999/xlink" x="0px" y="0px"
	 viewBox="0 0 221.5 210.5" style="enable-background:new 0 0 221.5 210.5;" xml:space="preserve">
<style type="text/css">
	.st0{fill:none;stroke:#FFFFFF;stroke-miterlimit:10;}
	.st1{fill:none;stroke:#000000;stroke-width:3;stroke-miterlimit:10;stroke-dasharray:10;}
</style>
<path class="st0" d="M211,207.2H11.4c-5,0-9.1-4.1-9.1-9.1v-68.2c0-5,4.1-9.1,9.1-9.1H211c5,0,9.1,4.1,9.1,9.1v68.2
	C220.1,203.1,216,207.2,211,207.2z"/>
<line class="st1" x1="111.2" y1="3.9" x2="111.2" y2="111.9"/>
<g>
	<path d="M39.8,170.2l1.9-2.7c1.2,1.2,3,2.2,5.3,2.2c1.9,0,2.9-0.9,2.9-1.8c0-3-9.6-0.9-9.6-7.2c0-2.8,2.4-5.1,6.3-5.1
		c2.6,0,4.8,0.8,6.5,2.3l-2,2.6c-1.3-1.2-3.1-1.8-4.8-1.8c-1.5,0-2.4,0.7-2.4,1.7c0,2.6,9.6,0.9,9.6,7.1c0,3-2.2,5.3-6.7,5.3
		C43.6,172.8,41.3,171.7,39.8,170.2z"/>
	<path d="M69.9,172.5l-7.9-10.9v10.9h-3.5v-16.7H62l7.7,10.5v-10.5h3.5v16.7H69.9z"/>
	<path d="M79.1,172.5v-16.7h11.8v3.1h-8.2v3.5h8.1v3.1h-8.1v3.8h8.2v3.1H79.1z"/>
	<path d="M107.7,172.5l-1-2.8h-7.1l-1,2.8h-4l6.4-16.7h4.4l6.4,16.7H107.7z M103.1,159.4l-2.6,7.2h5.2L103.1,159.4z"/>
	<path d="M125.7,172.5l-5-6.7l-1.3,1.5v5.1h-3.5v-16.7h3.5v7.4l5.9-7.4h4.4l-6.6,7.8l7.1,8.8H125.7z"/>
	<path d="M134.2,172.5v-16.7H146v3.1h-8.2v3.5h8.1v3.1h-8.1v3.8h8.2v3.1H134.2z"/>
	<path d="M160.7,172.5l-3.3-5.9h-2.6v5.9h-3.5v-16.7h7.8c3.5,0,5.6,2.3,5.6,5.4c0,2.9-1.8,4.5-3.6,4.9l3.7,6.3H160.7z M161,161.2
		c0-1.4-1.1-2.2-2.5-2.2h-3.7v4.5h3.7C159.9,163.5,161,162.6,161,161.2z"/>
	<path d="M168.7,170.2l1.9-2.7c1.2,1.2,3,2.2,5.3,2.2c1.9,0,2.9-0.9,2.9-1.8c0-3-9.6-0.9-9.6-7.2c0-2.8,2.4-5.1,6.3-5.1
		c2.6,0,4.8,0.8,6.5,2.3l-2,2.6c-1.3-1.2-3.1-1.8-4.8-1.8c-1.5,0-2.4,0.7-2.4,1.7c0,2.6,9.6,0.9,9.6,7.1c0,3-2.2,5.3-6.7,5.3
		C172.5,172.8,170.2,171.7,168.7,170.2z"/>
</g>
</svg>
