<?xml version="1.0" encoding="utf-8"?>
<!-- Generator: Adobe Illustrator 22.0.1, SVG Export Plug-In . SVG Version: 6.00 Build 0)  -->
<svg version="1.1" id="Layer_1" xmlns="http://www.w3.org/2000/svg" xmlns:xlink="http://www.w3.org/1999/xlink" x="0px" y="0px"
	 viewBox="0 0 221.5 210.5" style="enable-background:new 0 0 221.5 210.5;" xml:space="preserve">
<style type="text/css">
	.st0{fill:none;stroke:#FFFFFF;stroke-miterlimit:10;}
	.st1{fill:none;stroke:#000000;stroke-width:3;stroke-miterlimit:10;stroke-dasharray:10;}
</style>
<path class="st0" d="M210.6,206.9H10.9c-5,0-9.1-4.1-9.1-9.1v-68.2c0-5,4.1-9.1,9.1-9.1h199.7c5,0,9.1,4.1,9.1,9.1v68.2
	C219.7,202.8,215.6,206.9,210.6,206.9z"/>
<line class="st1" x1="110.8" y1="3.6" x2="110.8" y2="111.6"/>
<g>
	<path d="M73.9,160.8L71,149.3l-2.9,11.4h-3.8l-4.8-16.7h4l2.9,12l3.2-12h2.8l3.1,12l2.9-12h4l-4.7,16.7H73.9z"/>
	<path d="M86.6,160.8v-16.7h3.5v16.7H86.6z"/>
	<path d="M107.5,160.8l-7.9-10.9v10.9H96v-16.7h3.6l7.7,10.5v-10.5h3.5v16.7H107.5z"/>
	<path d="M120.5,160.8v-13.5h-4.9v-3.1H129v3.1h-4.8v13.5H120.5z"/>
	<path d="M133.7,160.8v-16.7h11.8v3.1h-8.2v3.5h8.1v3.1h-8.1v3.8h8.2v3.1H133.7z"/>
	<path d="M160.2,160.8l-3.3-5.9h-2.6v5.9h-3.5v-16.7h7.8c3.5,0,5.6,2.3,5.6,5.4c0,2.9-1.8,4.5-3.6,4.9l3.7,6.3H160.2z M160.6,149.5
		c0-1.4-1.1-2.2-2.5-2.2h-3.7v4.5h3.7C159.5,151.7,160.6,150.9,160.6,149.5z"/>
	<path d="M66.9,183.4l1.9-2.7c1.2,1.2,3,2.2,5.3,2.2c1.9,0,2.9-0.9,2.9-1.8c0-3-9.6-0.9-9.6-7.2c0-2.8,2.4-5.1,6.3-5.1
		c2.6,0,4.8,0.8,6.5,2.3l-2,2.6c-1.3-1.2-3.1-1.8-4.8-1.8c-1.5,0-2.4,0.7-2.4,1.7c0,2.6,9.6,0.9,9.6,7.1c0,3-2.2,5.3-6.7,5.3
		C70.8,186.1,68.5,185,66.9,183.4z"/>
	<path d="M97,185.8v-7h-7.9v7h-3.5v-16.7h3.5v6.5H97v-6.5h3.6v16.7H97z"/>
	<path d="M105.5,177.4c0-5,3.7-8.6,8.7-8.6c5,0,8.7,3.6,8.7,8.6c0,5-3.7,8.6-8.7,8.6C109.2,186.1,105.5,182.5,105.5,177.4z
		 M119.3,177.4c0-3.1-2-5.5-5.1-5.5s-5,2.3-5,5.5c0,3.1,2,5.5,5,5.5S119.3,180.5,119.3,177.4z"/>
	<path d="M127.9,185.8v-16.7h11.8v3.1h-8.2v3.5h8.1v3.1h-8.1v3.8h8.2v3.1H127.9z"/>
	<path d="M143.9,183.4l1.9-2.7c1.2,1.2,3,2.2,5.3,2.2c1.9,0,2.9-0.9,2.9-1.8c0-3-9.6-0.9-9.6-7.2c0-2.8,2.4-5.1,6.3-5.1
		c2.6,0,4.8,0.8,6.5,2.3l-2,2.6c-1.3-1.2-3.1-1.8-4.8-1.8c-1.5,0-2.4,0.7-2.4,1.7c0,2.6,9.6,0.9,9.6,7.1c0,3-2.2,5.3-6.7,5.3
		C147.7,186.1,145.4,185,143.9,183.4z"/>
</g>
</svg>
