<?xml version="1.0" encoding="utf-8"?>
<!-- Generator: Adobe Illustrator 22.0.1, SVG Export Plug-In . SVG Version: 6.00 Build 0)  -->
<svg version="1.1" id="Layer_1" xmlns="http://www.w3.org/2000/svg" xmlns:xlink="http://www.w3.org/1999/xlink" x="0px" y="0px"
	 viewBox="0 0 595.4 841.7" style="enable-background:new 0 0 595.4 841.7;" xml:space="preserve">
<style type="text/css">
	.st0{fill:none;stroke:#000000;stroke-width:3;stroke-miterlimit:10;}
</style>
<path class="st0" d="M321.3,232.7c-18.5,1.3-37.2-0.7-55.7,1s-37.6,7.8-49.7,21.9c-10.8,12.6-14.5,29.7-16.7,46.2
	c-9,68.7,2.7,138.2,10.9,207c1.3,11.1,2.4,23-2.7,33c-5.5,10.6-16.8,16.7-28,20.7c-30.1,10.8-64,11-94.2,0.5
	c-25.2-8.8-49.6-27.5-54.1-53.9c-3-17.4,3.4-35.5,14.3-49.5c10.9-13.9,25.9-24.1,41.6-32.3c56.1-29.4,124-35.5,184.5-16.5
	c25.8,8.1,50.1,20.5,75.5,29.4c23.4,8.2,47.8,13.6,72.6,15.2c25.5,1.6,51.7-1,75.4-10.6c23.7-9.6,44.9-26.7,56.6-49.4
	c12.8-24.8,13.7-53.8,13.8-81.7c0.1-30.8-1.8-64.9-23.4-86.8c-19.1-19.4-48.3-23.8-75.3-26c-59.4-4.8-119.3-4-178.6,2.4
	c-18.4,2-37,4.6-54.3,11.5c-5.2,2.1-10.6,4.9-12.7,10.1c-1.6,3.8-0.9,8.2-0.1,12.3c15.9,82.1,74.7,149,103.5,227.5
	c16.6,45.1,23,93.9,18.6,141.8c-0.6,7-1.8,14.6-6.7,19.7c-7.1,7.3-19,6.4-28.8,3.7c-24-6.6-45.4-20.3-65-35.6
	c-20-15.6-39.5-34.4-46.2-58.9c-7.8-28.3,3-58.4,17.3-84c45.3-81.1,124.9-136.7,204.3-184.9c16.4-10,34.7-22.2,37.5-41.2
	c2-13.7-5.3-27.7-16-36.4s-24.6-12.9-38.3-15c-51.4-7.8-102.9,11.7-149.6,34.7c-21.2,10.4-42.1,21.7-62.4,33.7
	c-9.1,5.3-18.4,11.2-23.6,20.4c-4.2,7.4-5.1,16.1-5.6,24.6c-3.7,58.2,8.5,117.4,34.8,169.4"/>
</svg>
