<?xml version="1.0" encoding="utf-8"?>
<!-- Generator: Adobe Illustrator 22.0.1, SVG Export Plug-In . SVG Version: 6.00 Build 0)  -->
<svg version="1.1" id="Layer_1" xmlns="http://www.w3.org/2000/svg" xmlns:xlink="http://www.w3.org/1999/xlink" x="0px" y="0px"
	 viewBox="0 0 453 462.9" style="enable-background:new 0 0 453 462.9;" xml:space="preserve">
<style type="text/css">
	.st0{fill:#F4BB06;}
	.st1{fill:#FFFFFF;}
	.st2{fill:#F4BB06;stroke:#FFFFFF;stroke-width:0.75;stroke-linecap:round;stroke-linejoin:round;stroke-miterlimit:10;}
	.st3{fill:#FFFFFF;stroke:#F4BB06;stroke-width:2;stroke-linecap:round;stroke-linejoin:round;stroke-miterlimit:10;}
	.st4{fill:none;stroke:#FFFFFF;stroke-width:3;stroke-miterlimit:10;}
</style>
<circle class="st0" cx="228" cy="229.7" r="215.9"/>
<g>
	<g>
		<path class="st1" d="M184,245.2c-8.9,10.3-8.4,26,0.2,34.8c8.6,8.8,24,10.3,36.3,4.5c15.5-7.3,24.5-23.1,36.3-35.5
			c22.4-23.6,55.2-34.8,81-54.9c12-9.4,23.2-24.9,16.8-37c-10.3-19.6-44.9-18.4-63.2-9.7c-34,16.3-28.1,43.8-59.2,65.1
			C208.1,228.9,187.9,240.7,184,245.2z"/>
		<g>
			<path class="st1" d="M183.2,244.4c-9.2,11.2-9.5,28.9,2.4,38.4c13.1,10.4,31.9,6.7,44.2-2.8c14.4-11.2,23.5-27.8,37.6-39.4
				c15.5-12.8,33.7-21.7,50.8-32c14.5-8.8,32.1-19.4,37.9-36.3c4.7-13.6-4.8-24.6-17.1-29.1c-13-4.7-28.5-3.7-41.5,0.5
				c-14.5,4.7-26,14.7-34.1,27.5c-4.4,7-8.1,14.4-12.8,21.2c-6.8,9.9-15.7,16.8-25.6,23.5c-9.1,6.1-18.3,12-27.4,17.9
				C192.9,237,187.2,240.1,183.2,244.4c-1,1.1,0.6,2.7,1.6,1.6c3-3.3,7.2-5.7,10.9-8.2c6.6-4.4,13.3-8.6,19.9-13
				c13.8-9,27.5-17.5,37.1-31.3c7.6-10.9,12.6-23.6,22.1-33.2c10.4-10.5,24.3-16.3,38.9-17.6c12.6-1.1,28.3,0.4,37.1,10.6
				c13.6,15.9-6.4,34.7-18.7,43.5c-27.3,19.5-59.5,31.2-81.6,57.5c-11.9,14.1-24,31.8-44.4,32.4c-9.7,0.3-20-3.7-24.7-12.7
				c-4.7-9.1-2.9-20.3,3.5-28.1C185.7,244.9,184.1,243.3,183.2,244.4z"/>
		</g>
	</g>
	<g>
		<path class="st0" d="M180.2,240.7c-8.9,10.3-8.4,26,0.2,34.8c8.6,8.8,24,10.3,36.3,4.5c15.5-7.3,24.5-23.1,36.3-35.5
			c22.4-23.6,55.2-34.8,81-54.9c12-9.4,23.2-24.9,16.8-37c-10.3-19.6-44.9-18.4-63.2-9.7c-34,16.3-28.1,43.8-59.2,65.1
			C204.4,224.4,184.1,236.2,180.2,240.7z"/>
		<g>
			<path class="st1" d="M179.4,239.9c-9.2,11.2-9.5,28.9,2.4,38.4c13.1,10.4,31.9,6.7,44.2-2.8c14.4-11.2,23.5-27.8,37.6-39.4
				c15.5-12.8,33.7-21.7,50.8-32c14.5-8.8,32.1-19.4,37.9-36.3c4.7-13.6-4.8-24.6-17.1-29.1c-13-4.7-28.5-3.7-41.5,0.5
				c-14.5,4.7-26,14.7-34.1,27.5c-4.4,7-8.1,14.4-12.8,21.2c-6.8,9.9-15.7,16.8-25.6,23.5c-9.1,6.1-18.3,12-27.4,17.9
				C189.1,232.5,183.4,235.6,179.4,239.9c-1,1.1,0.6,2.7,1.6,1.6c3-3.3,7.2-5.7,10.9-8.2c6.6-4.4,13.3-8.6,19.9-13
				c13.8-9,27.5-17.5,37.1-31.3c7.6-10.9,12.6-23.6,22.1-33.2c10.4-10.5,24.3-16.3,38.9-17.6c12.6-1.1,28.3,0.4,37.1,10.6
				c13.6,15.9-6.4,34.7-18.7,43.5c-27.3,19.5-59.5,31.2-81.6,57.5c-11.9,14.1-24,31.8-44.4,32.4c-9.7,0.3-20-3.7-24.7-12.7
				c-4.7-9.1-2.9-20.3,3.5-28.1C181.9,240.4,180.4,238.8,179.4,239.9z"/>
		</g>
	</g>
	<g>
		<path class="st0" d="M254.5,180.5c0,0,1.2-14.6,13.8-19.2c11.3-4.1,29.6,9.7,35.5,8.6c4.5-0.8,11.7-4.9,11.7-4.9l-0.6,0.1
			c-5,1.7-10.7-1.5-15.7-2.4c-4.6-0.9-21.8-13.7-32.5-9.9c-26.1,9.3-15.4,26.7-19.2,38.5"/>
		<g>
			<path class="st1" d="M254.9,180.5c0.4-4.8,2.5-9.8,5.6-13.4c6.5-7.6,15.3-6.8,23.9-3.7c5.5,2,11.6,6.2,17.5,6.8
				c4.6,0.5,9.8-2.8,13.7-4.9c0.4-0.2,0.1-0.8-0.3-0.7c-9.8,2.3-19.8-4.1-28.3-8.2c-8.2-3.9-15.8-6.4-24.4-2.5
				c-7.2,3.3-12.9,8.6-14.3,16.6c-1.2,6.8,0.6,13.9-1.3,20.6c-0.1,0.5,0.6,0.7,0.7,0.2c2.8-9.4-1.6-19.9,4.5-28.6
				c4.5-6.5,14-11.3,21.9-10.1c7,1.1,13.3,4.7,19.6,8c5,2.6,11,4.7,16.5,5.2c0.8,0.1,2.4,0.2,3.3,0c-1.7,0.5,1.6-0.3,1.8-0.4
				c1.5-1-0.6-0.4-0.5-0.5c-3.4,1.2-6.4,3.6-10,4.4c-5.2,1.2-11.4-3-16-4.9c-5.4-2.3-11.5-4.8-17.5-4.1
				c-9.7,1.1-16.3,11.1-17.1,20.3C254.1,181,254.9,181,254.9,180.5L254.9,180.5z"/>
		</g>
	</g>
	<path class="st2" d="M289,215.4c6.7-0.2,15.8-5.3,17-13.7c1.8-12.5-1.9-14.8-0.7-22.8c0.7-4.7,5.3-11.9,10.2-12.9l-0.3,0.6
		c-3.2,4.5-4.7,8.3-3.5,15c0.9,4.9,6.7,15.6,1.4,25.8c-2.3,4.3-5.9,7.8-10.3,10.3c-6.5,3.6-14.4,6-23.6,4.4"/>
</g>
<g>
	<g>
		<path class="st1" d="M193.2,311.8c9.6,10.9,22.6,21.4,37.9,20.6c10.4-0.5,20.4-6.8,24.8-15.5s3-19.7-3.4-27.2
			c-5-5.8-40.5-48.7-83.7-84.7c-7.7-6.4-22.6-12.6-38.5-12.4c-14.7,0.3-30.8,5.9-36.6,18.4c-5.1,11-0.6,24.1,7.8,33
			s19.3,16.2,31.5,20C171.1,276,183.6,300.9,193.2,311.8z"/>
	</g>
	<g>
		<path class="st0" d="M198.2,306.4c9.6,10.9,22.6,21.4,37.9,20.6c10.4-0.5,20.4-6.8,24.8-15.5c4.4-8.8,3-19.7-3.4-27.2
			c-5-5.8-40.5-48.7-83.7-84.7c-7.7-6.4-22.6-12.6-38.5-12.4c-14.7,0.3-30.8,5.9-36.6,18.4c-5.1,11-0.6,24.1,7.8,33
			s19.3,16.2,31.5,20C176.1,270.6,188.6,295.5,198.2,306.4z"/>
		<g>
			<path class="st1" d="M197.4,307.2c10.5,11.8,25.1,23.3,42,20.6c14.8-2.3,27-15.3,25-30.7c-1.3-9.9-8.9-17-15.2-24.2
				c-10-11.5-20.3-22.7-31-33.6c-14.1-14.4-28.6-29-44.5-41.3c-13-10-31.3-13.8-47.3-11.1c-13.9,2.3-29.1,10.3-30.8,25.8
				c-1.9,17.1,12,31,25.3,39.3c9.4,5.9,20.1,8.3,30.1,12.9c8.1,3.8,15.6,8.6,22.3,14.5C182.8,287.6,189.3,297.8,197.4,307.2
				c0.9,1.1,2.5-0.5,1.6-1.6c-5.7-6.6-10.5-13.9-16.4-20.3c-8.6-9.3-18.9-16.9-30.4-22.3c-7.5-3.5-15.5-5.4-22.9-8.9
				c-7.8-3.7-14.9-8.9-20.9-15.1c-12.8-13.2-15.3-33.9,2.2-44.3c14.5-8.6,33.7-7.9,49-1.9c8.5,3.3,15,8.8,21.7,14.7
				c6.7,5.9,13.3,11.9,19.7,18.1c18.5,17.8,36.1,36.6,52.7,56.1c3.6,4.2,6.8,8.3,8,13.9c2.2,10.3-2.8,20.3-11.6,25.8
				c-18.8,11.8-38.6-1.6-51.2-15.8C198,304.5,196.5,306.1,197.4,307.2z"/>
		</g>
	</g>
	<path class="st3" d="M117.7,242.7c0.7,2.1,1.3,4.2,2.9,5.6c1.7,1.4,4.2,3.2,7,4.4c7.5,3.3,17.1,8,24,11.4c3.9,1.9,7.9-0.5,9.5-4.6
		c7.2-17.8,30.7-51.3,50.8-30.7c0,0-26.7-25-32.1-29.3C156.3,181,109.5,219.7,117.7,242.7z"/>
</g>
<circle class="st4" cx="228" cy="229.7" r="199"/>
</svg>
