<?xml version="1.0" encoding="utf-8"?>
<!-- Generator: Adobe Illustrator 22.0.1, SVG Export Plug-In . SVG Version: 6.00 Build 0)  -->
<svg version="1.1" id="Layer_1" xmlns="http://www.w3.org/2000/svg" xmlns:xlink="http://www.w3.org/1999/xlink" x="0px" y="0px"
	 viewBox="0 0 448.5 461.4" style="enable-background:new 0 0 448.5 461.4;" xml:space="preserve">
<style type="text/css">
	.st0{fill:#F4BB06;}
	.st1{fill:#FFFFFF;}
	.st2{fill:none;stroke:#FFFFFF;stroke-width:2;stroke-miterlimit:10;}
	.st3{fill:#FFFFFF;stroke:#FFFFFF;stroke-miterlimit:10;}
	.st4{fill:#F4BB06;stroke:#FFFFFF;stroke-miterlimit:10;}
	.st5{fill:none;stroke:#FFFFFF;stroke-width:3;stroke-miterlimit:10;}
</style>
<circle class="st0" cx="223.3" cy="229.5" r="215.9"/>
<g>
	<g>
		<path class="st1" d="M184.6,269.2l14.5,10.7l6-0.9c6.1-0.9,10.4-5.6,9.9-11.7l-1.6-44.7c-0.2-6.1-11.6-26-14.3-35.1
			c-0.5-1.8-1.3-31.7-4.4-30.4c-9,3.7-28,5.4-42.5,0.1l-6.6,43.6c-0.5,12.5-13.8,54.1-24.2,66.3c-5.4,6.3-18.6,11.6-23.2,18.9
			c-0.7,1.1,2.4,6.2,4.4,6.6c20,3.8,47.7-1.5,51.2-2.1c20.2-3.7,16.6-36,30.8-47.9V269.2z"/>
		<g>
			<path class="st1" d="M183.8,270.5c2,1.5,4,3,6,4.4c2.5,1.8,5.2,4.6,8,5.9c4,1.8,11.8-1,14.8-3.8c4.2-3.9,3.8-8.9,3.7-14
				c-0.2-7-0.5-14-0.7-21c-0.2-5.9-0.4-11.8-0.6-17.7c-0.2-5.3-2.5-10-4.6-14.8c-3.3-7.3-8.5-15.1-9.8-23.1
				c-1.1-6.6-0.8-13.5-1.5-20.1c-0.4-3.6-0.2-11.8-5.5-10.4c-13.5,3.6-27.3,4.4-40.8-0.3c-0.7-0.2-1.7,0.3-1.8,1
				c-2,13.1-4,26.2-6,39.3c-2.5,16.3-6.5,31.8-12.6,47.2c-3.7,9.3-7.8,20.2-16,26.4c-4.7,3.6-10,6.4-14.5,10.2
				c-2.7,2.3-6,4.8-4.5,8.6c1.8,4.6,5,5.6,9.6,6.2c6.6,0.8,13.2,0.9,19.8,0.5c9.1-0.5,18.4-1.5,27.4-3.3
				c22.3-4.6,17.3-35.6,31.7-48.4c-0.9-0.4-1.7-0.7-2.6-1.1c0,8.9,0,17.9,0,26.8c0,1.9,3,1.9,3,0c0-8.9,0-17.9,0-26.8
				c0-1.4-1.6-1.9-2.6-1.1c-6.2,5.5-9,13.7-11.5,21.4c-2.7,8.3-5.1,19.1-13.1,24c-6.3,3.8-16.2,3.9-23.2,4.7
				c-6.1,0.6-12.2,1-18.3,0.9c-4.3-0.1-16.9,1-17.5-5.2c-0.5-4.3,10.1-9.6,13.3-11.8c3.8-2.5,7.5-5.1,10.3-8.7
				c5.4-7,8.8-15.7,12-23.8c5.6-14.5,9.6-29.1,11.9-44.4c2.1-13.7,4.2-27.3,6.2-41c-0.6,0.3-1.2,0.7-1.8,1c10,3.5,21,4.2,31.5,2.8
				c2.2-0.3,4.4-0.7,6.5-1.2c1.2-0.3,4.3-1.9,5.3-1.7c-1.2-0.3-0.4,1.1-0.1,1.9c0.4,1.6,0.6,3.3,0.8,5c0.8,6.3,1,12.6,1.5,18.9
				c0.4,5.6,2.9,10.5,5.2,15.5c3.2,7,8.4,14.9,9.3,22.8c0.4,3.3,0.2,6.8,0.4,10.2c0.4,11.3,1.2,22.7,1.2,34.1
				c0,5.9-2.9,9.5-8.8,10.7c-1.3,0.3-2.6,0.3-3.9,0.6c-0.4,0.1-1,0.2-1.5,0.2c-1.4,0,1.3,0.6,0-0.1c-4.9-2.9-9.4-6.9-14-10.3
				C183.8,266.8,182.3,269.4,183.8,270.5z"/>
		</g>
	</g>
	<path class="st2" d="M195.5,156.1c0,2.4-9.6,3.6-21.4,3.6s-21.4-1.2-21.4-3.6s9.6-5.2,21.4-5.2S195.5,153.7,195.5,156.1z"/>
</g>
<g>
	<g>
		<path class="st3" d="M369.5,289.2c-7.8,2.7-15.7,5.8-23.8,7.1c-20.5,3.4-25.5,5.3-46.2,1.6c-8.2-1.5-15.6-4.5-21.8-10.3
			c-2.3-2.1-5.1-3.6-7.5-5.5c-4.8-3.7-9.4-4.8-14.6-0.5c-1.1,0.9-3.2,1.6-4.4,1.2c-6.8-2.3-13.5-4.9-20.1-7.6
			c-2.4-1-3.1-2.9-2.8-5.9c0.4-4.1-0.3-8.5-1.5-12.5c-3.1-10.3-1.9-20.4,1.1-30.4c3.9-13.1,1.3-38.9,1.2-44c-0.2-5.7,5.7-6.5,9-5.7
			c3.3,0.8,3.1,4.3,2.6,10.2c0,0.5,3.6,1.8,4.7,2c3.8,0.5,10.6,0.2,11.3,0.2c4.4,0.2,8.9,0.3,13.4,0.4c1.6,0,3.1,0.1,4.7,0.1
			c3.7,0.1,7.4,0.2,11.4,0.3c0.2,0.5,1.1,2.2,1.5,4c5.2,27.1,14.8,42.1,35.8,57c10.5,7.4,16,11.7,28,14.9c3.6,0.9,7.1,2.3,10.6,3.8
			c6.6,2.8,7.7,9.6,10.6,15C373,285.5,371,288.7,369.5,289.2z"/>
	</g>
	<g>
		<path class="st0" d="M269.5,239.5c-0.8,0.9-2,1-3,1c-6.5,0.1-13.3,0.1-19.2-3.1c-0.8-0.4-1.6-1-2.2-1.8c-0.6-1.1-0.7-2.5-0.8-3.8
			c-0.7-14.4,1.3-30.3,1-44.9c3.8,0.5,10.6,0.2,11.3,0.2c4.4,0.2,8.9,0.3,13.4,0.4c0.1,16.1,0.2,32.2,0.3,48.3
			C270.3,237.1,270.3,238.6,269.5,239.5z"/>
		<g>
			<path class="st0" d="M268.7,238.7c-1.9,1.5-6.5,0.8-8.8,0.6c-2.9-0.2-5.8-0.5-8.6-1.4c-2.1-0.7-4.8-1.6-5.7-3.8
				c-0.5-1.1-0.3-2.8-0.3-4.1c-0.1-2.9-0.1-5.9,0-8.8c0.2-11.4,1.3-22.8,1.1-34.3c-0.4,0.4-0.8,0.8-1.1,1.1
				c8.1,0.8,16.5,0.4,24.7,0.6c-0.4-0.4-0.8-0.8-1.1-1.1c0.1,8.4,0.1,16.7,0.2,25.1c0,3.9,0,7.7,0.1,11.6c0,4.1,1.3,11-0.5,14.7
				c-0.6,1.3,1.3,2.4,1.9,1.1c1.5-3.1,0.9-6.7,0.9-10c0-4.5-0.1-9-0.1-13.5c-0.1-9.7-0.1-19.3-0.2-29c0-0.6-0.5-1.1-1.1-1.1
				c-8.1-0.2-16.6,0.1-24.7-0.6c-0.6-0.1-1.1,0.6-1.1,1.1c0.1,8.4-0.4,16.8-0.8,25.2c-0.3,6.8-1.3,14.5-0.1,21.2
				c0.9,5.3,6.7,6.8,11.4,7.6c4.5,0.8,11.8,2.2,15.6-0.8C271.5,239.4,269.9,237.8,268.7,238.7z"/>
		</g>
	</g>
	<path class="st4" d="M286.6,189.9c0,3-11.9,4.4-26.5,4.4c-14.6,0-26.5-1.4-26.5-4.4c0-3,11.9-6.4,26.5-6.4
		C274.8,183.5,286.6,186.9,286.6,189.9z"/>
	<g>
		<g>
			<path class="st1" d="M232,188c0.5,2.4,1,4.7,1.6,7.1c0.5,1.9,3.4,1.1,2.9-0.8c-0.6-2.3-1.2-4.7-1.6-7.1
				C234.6,185.3,231.7,186.1,232,188L232,188z"/>
		</g>
	</g>
	<g>
		<g>
			<path class="st1" d="M238.3,192.9c-3.5-1-3.4-5.3-3.4-8.2c0-1.9-3-1.9-3,0c-0.1,4.4,0.6,9.7,5.6,11.1
				C239.4,196.4,240.2,193.5,238.3,192.9L238.3,192.9z"/>
		</g>
	</g>
	<g>
		<g>
			<path class="st1" d="M232.3,183.9c0.2,4.7-0.7,10.3,4.5,12.5c1.8,0.7,2.6-2.2,0.8-2.9c-3.4-1.4-2.2-6.8-2.3-9.6
				C235.2,181.9,232.2,181.9,232.3,183.9L232.3,183.9z"/>
		</g>
	</g>
	<g>
		<g>
			<path class="st1" d="M243,193c-2.1-0.3-4.2-0.9-5.9-2.2c-1.7-1.3-1.8-3.3-2-5.3c-0.1-1.9-3.1-1.9-3,0c0.2,2.5,0.5,5.1,2.3,6.9
				c2,2,5.1,3,7.8,3.4C244,196.2,244.9,193.3,243,193L243,193z"/>
		</g>
	</g>
	<g>
		<g>
			<path class="st1" d="M232.7,187.5c0,0.4,0,0.9,0,1.3c0,0.8,0.7,1.5,1.5,1.5c0.8,0,1.5-0.7,1.5-1.5c0-0.4,0-0.9,0-1.3
				c0-0.8-0.7-1.5-1.5-1.5C233.4,186.1,232.7,186.7,232.7,187.5L232.7,187.5z"/>
		</g>
	</g>
</g>
<circle class="st5" cx="225.1" cy="229.5" r="199"/>
</svg>
